<?xml version="1.0" encoding="UTF-8"?>
<svg version="1.1" xmlns="http://www.w3.org/2000/svg" width="1024" height="1024">
<path d="M0 0 C-1.48539626 3.94643629 -3.50935553 5.18945347 -7.15234375 7.1796875 C-8.7609729 8.06720703 -8.7609729 8.06720703 -10.40209961 8.97265625 C-11.58033385 9.60720283 -12.75880746 10.24130512 -13.9375 10.875 C-15.1599318 11.54233677 -16.38201301 12.21031613 -17.60375977 12.87890625 C-26.92494506 17.95991875 -36.33925683 22.86220748 -45.77880859 27.71923828 C-62.35743304 36.24998679 -78.7991308 45.04952517 -95.06787109 54.15771484 C-111.63227565 63.40217253 -128.43311868 72.24819831 -145.27807617 80.96826172 C-150.82868697 83.84542992 -156.31488392 86.81540021 -161.76538086 89.87866211 C-164 91 -164 91 -166 91 C-165.30554789 94.23591551 -165.30554789 94.23591551 -162.3046875 95.421875 C-160.60699219 96.07929688 -160.60699219 96.07929688 -158.875 96.75 C-157.20050781 97.42289063 -157.20050781 97.42289063 -155.4921875 98.109375 C-148.57728613 99.87290689 -144.01551772 97.76273399 -138.13696289 94.30566406 C-137.28739014 93.79229492 -136.43781738 93.27892578 -135.5625 92.75 C-133.69943366 91.65366798 -131.83478525 90.56002106 -129.96875 89.46875 C-128.99679687 88.89898437 -128.02484375 88.32921875 -127.0234375 87.7421875 C-121.92712396 84.80555205 -116.74506904 82.03066175 -111.5625 79.25 C-104.07956446 75.22387467 -96.63820648 71.15123751 -89.29296875 66.87890625 C-79.87269703 61.50387576 -70.2606695 56.48173445 -60.66717529 51.42547607 C-45.69597409 43.53897907 -45.69597409 43.53897907 -30.875 35.375 C-23.69874423 31.33492105 -16.39645061 27.61020496 -9.00292969 23.98535156 C-5.49282187 22.25853596 -1.99739144 20.50238582 1.5 18.75 C3.36949806 17.81501354 5.23891476 16.88027182 7.11328125 15.95507812 C8.45664395 15.27505291 9.78622392 14.56750391 11.10546875 13.84179688 C11.80285156 13.46603516 12.50023437 13.09027344 13.21875 12.703125 C13.84716797 12.35411133 14.47558594 12.00509766 15.12304688 11.64550781 C17.45735104 10.84271122 18.67086194 11.33152243 21 12 C21.21033391 28.84606996 21.36899253 45.69172966 21.46630955 62.53881264 C21.51269893 70.36144554 21.57592957 78.18326218 21.67895508 86.00537109 C21.76872055 92.82398124 21.82673731 99.64200026 21.84679645 106.46118486 C21.85852131 110.0715843 21.88602582 113.68029288 21.95157051 117.29014969 C22.02419314 121.3226104 22.02590593 125.35214135 22.02172852 129.38525391 C22.054086 130.57927826 22.08644348 131.77330261 22.11978149 133.00350952 C22.03103921 140.90861566 22.03103921 140.90861566 19.08520317 144.02686691 C16.779823 145.59806798 14.52871279 146.82795389 12 148 C10.50604344 148.78296378 9.01248617 149.56669048 7.51953125 150.3515625 C5.95287191 151.11422362 4.38375698 151.87185661 2.8125 152.625 C-4.66344381 156.28423688 -12.01787405 160.11646367 -19.3125 164.125 C-20.2403833 164.63466309 -21.1682666 165.14432617 -22.12426758 165.66943359 C-23.9240989 166.65901288 -25.7236692 167.6490671 -27.52294922 168.63964844 C-35.75739452 173.16185711 -44.04925802 177.55113378 -52.46875 181.71875 C-60.59315474 185.76253921 -68.61891559 189.97775897 -76.625 194.25 C-78.02837625 194.99695535 -79.43177834 195.74386216 -80.83520508 196.49072266 C-89.68873987 201.20747972 -98.50808384 205.98384995 -107.30249023 210.81005859 C-114.43718225 214.7169745 -121.62560776 218.5156457 -128.85083008 222.25244141 C-132.44954176 224.11690495 -136.02928435 225.97947459 -139.51171875 228.0546875 C-140.45660156 228.61414063 -141.40148437 229.17359375 -142.375 229.75 C-143.12523437 230.21921875 -143.87546875 230.6884375 -144.6484375 231.171875 C-150.2630657 233.14911948 -155.48955877 230.57040174 -160.56054688 228.16601562 C-161.30369141 227.80185547 -162.04683594 227.43769531 -162.8125 227.0625 C-163.9562207 226.52206055 -163.9562207 226.52206055 -165.12304688 225.97070312 C-170.71312978 223.28687022 -170.71312978 223.28687022 -173 221 C-173.26844215 218.70637798 -173.26844215 218.70637798 -173.29434204 215.78190613 C-173.31580795 214.12261833 -173.31580795 214.12261833 -173.33770752 212.42980957 C-173.34308533 211.21055786 -173.34846313 209.99130615 -173.35400391 208.73510742 C-173.3671463 207.45537552 -173.3802887 206.17564362 -173.39382935 204.85713196 C-173.42865705 201.34052301 -173.44975463 197.82396844 -173.46624041 194.30722976 C-173.47653916 192.11044797 -173.48869065 189.91368308 -173.50126266 187.71691322 C-173.5393691 180.84463392 -173.56783065 173.97239764 -173.5844866 167.10003299 C-173.60403509 159.16503901 -173.65667799 151.23116039 -173.73748839 143.29655951 C-173.79779547 137.16484731 -173.82742262 131.03345493 -173.83404863 124.90145189 C-173.8387519 121.23825871 -173.85669234 117.57625678 -173.90697098 113.91338158 C-173.96217107 109.82589848 -173.95387769 105.74090809 -173.93994141 101.65307617 C-173.96556152 100.43989716 -173.99118164 99.22671814 -174.01757812 97.97677612 C-173.91773345 89.96302844 -173.91773345 89.96302844 -171.24931049 87.16290474 C-169.2059259 85.86342165 -167.24389047 84.899033 -165 84 C-163.6860022 83.27586914 -163.6860022 83.27586914 -162.34545898 82.53710938 C-161.57016846 82.14330078 -160.79487793 81.74949219 -159.99609375 81.34375 C-159.10301514 80.88564941 -158.20993652 80.42754883 -157.28979492 79.95556641 C-156.3485376 79.47522949 -155.40728027 78.99489258 -154.4375 78.5 C-146.42487383 74.36731393 -138.51587716 70.09670518 -130.6875 65.625 C-119.33830088 59.14764748 -107.85136769 52.94672438 -96.32910156 46.78369141 C-92.96345515 44.98041972 -89.6021345 43.1693356 -86.2421875 41.35546875 C-75.89491366 35.76955234 -65.54153378 30.20002796 -55.1171875 24.7590332 C-50.7844027 22.49033894 -46.48197804 20.17443439 -42.19921875 17.8125 C-32.50822049 12.47384398 -22.80880193 7.24375239 -12.75 2.625 C-11.92250244 2.23755615 -11.09500488 1.8501123 -10.24243164 1.45092773 C-9.0937561 0.93767944 -9.0937561 0.93767944 -7.921875 0.4140625 C-6.92559082 -0.03525635 -6.92559082 -0.03525635 -5.90917969 -0.49365234 C-3.60549401 -1.10462985 -2.23296969 -0.74867236 0 0 Z " fill="#FDFEFD" transform="translate(668,395)"/>
<path d="M0 0 C1.23169922 0.79277344 1.23169922 0.79277344 2.48828125 1.6015625 C3.84471416 2.31026647 5.20595561 3.00979835 6.5703125 3.703125 C8.14818615 4.54229815 9.7249508 5.38355881 11.30078125 6.2265625 C17.13900871 9.32768797 22.99148694 12.3762119 28.92578125 15.2890625 C36.9233839 19.23421634 44.76174907 23.47301445 52.61160278 27.70214844 C61.48684181 32.48230096 70.40168466 37.17215091 79.36328125 41.7890625 C88.52836063 46.51417597 97.62015019 51.35107172 106.65625 56.31811523 C115.53875989 61.19704229 124.50440777 65.91251999 133.48828125 70.6015625 C133.12251037 73.10458932 132.86142669 74.29050383 130.88452148 75.93847656 C130.19559814 76.32745117 129.5066748 76.71642578 128.796875 77.1171875 C128.02504883 77.55957764 127.25322266 78.00196777 126.45800781 78.45776367 C125.62237305 78.91771729 124.78673828 79.3776709 123.92578125 79.8515625 C123.06823242 80.33536377 122.21068359 80.81916504 121.32714844 81.31762695 C114.74803723 84.9947976 108.05585036 88.41127367 101.2890625 91.7265625 C92.3359957 96.11803383 83.6251454 100.93937368 74.96777344 105.8828125 C64.14210766 112.06241605 53.20426982 117.98153373 42.17578125 123.7890625 C28.3904439 131.04984341 14.64763652 138.34793782 1.23828125 146.2890625 C-4.23657126 149.52037405 -9.86645848 152.33848698 -15.578125 155.12109375 C-18.59251333 156.56851245 -18.59251333 156.56851245 -21.51171875 158.6015625 C-27.23660719 159.43246068 -30.71694892 157.18257303 -35.44921875 154.3515625 C-37.08312357 153.41143009 -38.71861185 152.4740456 -40.35546875 151.5390625 C-41.63550781 150.80429687 -41.63550781 150.80429687 -42.94140625 150.0546875 C-47.06160098 147.72533729 -51.2489893 145.53245087 -55.44921875 143.3515625 C-56.81433594 142.64193359 -56.81433594 142.64193359 -58.20703125 141.91796875 C-68.93569714 136.35957725 -79.69396035 130.85825846 -90.44921875 125.3515625 C-91.37024384 124.87988647 -92.29126892 124.40821045 -93.24020386 123.92224121 C-102.24922737 119.31029177 -111.26370615 114.71317797 -120.328125 110.2109375 C-125.47707368 107.65020313 -130.5467013 105.00382932 -135.51171875 102.1015625 C-139.61804101 99.73284877 -143.73426532 97.4576085 -148.00390625 95.39453125 C-149.10412109 94.86279297 -149.10412109 94.86279297 -150.2265625 94.3203125 C-151.6327508 93.6490038 -153.04404411 92.98825259 -154.4609375 92.33984375 C-158.19684593 90.55939044 -159.89713266 89.38804627 -161.51171875 85.6015625 C-152.58301585 78.63103432 -142.59406464 73.84172093 -132.51171875 68.7890625 C-129.15515636 67.09976343 -125.80112595 65.40554796 -122.44921875 63.70703125 C-121.62252686 63.28851898 -120.79583496 62.87000671 -119.9440918 62.43881226 C-113.43617645 59.12252341 -107.05057373 55.61259575 -100.68310547 52.03556824 C-95.04405368 48.87382815 -89.32838962 45.92423393 -83.51171875 43.1015625 C-75.97301162 39.38727691 -68.57924334 35.49621493 -61.26074219 31.36669922 C-55.65011084 28.20870109 -49.97471437 25.19497089 -44.26171875 22.2265625 C-34.93243687 17.3750237 -25.68684742 12.38025469 -16.46484375 7.328125 C-15.22444336 6.65571777 -15.22444336 6.65571777 -13.95898438 5.96972656 C-12.2997436 5.0421143 -10.66289761 4.07348939 -9.04882812 3.06933594 C-3.19303793 -0.50651613 -3.19303793 -0.50651613 0 0 Z " fill="#FDFEFD" transform="translate(513.51171875,311.3984375)"/>
<path d="M0 0 C3.72553871 1.44281895 7.31955393 3.06602856 10.91796875 4.80078125 C12.07699707 5.35926758 13.23602539 5.91775391 14.43017578 6.49316406 C15.6827261 7.0993844 16.93516476 7.70583547 18.1875 8.3125 C19.14532379 8.77577698 19.14532379 8.77577698 20.12249756 9.24841309 C39.92219824 18.82905243 59.59102007 28.64796458 79 39 C91.09931122 45.45348954 91.09931122 45.45348954 103.3125 51.6875 C103.92923584 51.9961499 104.54597168 52.3047998 105.18139648 52.62280273 C109.17543729 54.61424419 113.18312432 56.57567185 117.20011902 58.52043152 C119.74771988 59.75676209 122.29029265 61.00323748 124.83236694 62.25088501 C126.10151834 62.87076702 127.37284444 63.48621796 128.64639282 64.09701538 C130.45202209 64.96352888 132.24959907 65.84675956 134.046875 66.73046875 C135.09713867 67.23989014 136.14740234 67.74931152 137.22949219 68.27416992 C140.5776144 70.35981285 141.98292398 71.56215817 144 75 C144.58806843 79.10397818 144.50459322 83.1784781 144.45410156 87.31762695 C144.45468567 88.56681412 144.45526978 89.81600128 144.45587158 91.1030426 C144.45356516 94.52037389 144.43353057 97.93673408 144.40557575 101.35389352 C144.38054039 104.92797235 144.37821843 108.50206466 144.37347412 112.07621765 C144.36105055 118.84062528 144.32823755 125.60477376 144.28807616 132.36906737 C144.24333901 140.07153942 144.22136656 147.77402395 144.20129442 155.47659361 C144.15950418 171.31787906 144.08916444 187.15890609 144 203 C140.84305252 204.01630663 140.27840537 204.13205444 137.109375 202.62890625 C136.00078125 201.94699219 134.8921875 201.26507812 133.75 200.5625 C126.83555846 196.33608897 119.64016226 192.76368087 112.38104248 189.17782593 C108.07572546 187.04812263 103.77863145 184.90190786 99.48046875 182.7578125 C98.5623642 182.29988815 97.64425964 181.84196381 96.69833374 181.37016296 C94.81145021 180.42901024 92.92462003 179.48775053 91.0378418 178.54638672 C89.14334524 177.60165362 87.24849037 176.65763868 85.35327148 175.71435547 C73.15368026 169.64145444 61.03223442 163.44532341 48.99490356 157.0567627 C44.55033089 154.7023338 40.08579028 152.38599465 35.625 150.0625 C34.68164795 149.56943359 33.7382959 149.07636719 32.76635742 148.56835938 C27.85801232 146.00371945 22.94243198 143.45499036 18.01171875 140.93359375 C17.05378418 140.44044678 16.09584961 139.9472998 15.10888672 139.43920898 C13.29206875 138.50415207 11.4722289 137.57493527 9.64892578 136.65258789 C8.42471924 136.02018188 8.42471924 136.02018188 7.17578125 135.375 C6.46333252 135.01148438 5.75088379 134.64796875 5.0168457 134.2734375 C2.57506759 132.73169744 0.8692837 131.21216932 -1 129 C-1.49498463 126.51157856 -1.49498463 126.51157856 -1.48774719 123.66633606 C-1.49469101 122.58527084 -1.50163483 121.50420563 -1.50878906 120.39038086 C-1.495979 119.20943848 -1.48316895 118.02849609 -1.4699707 116.81176758 C-1.4721611 115.56433273 -1.4743515 114.31689789 -1.47660828 113.03166199 C-1.47852367 109.61421506 -1.46262688 106.1977355 -1.43850732 102.78043199 C-1.41721502 99.2068031 -1.41780639 95.63317626 -1.41581726 92.05949402 C-1.40937143 86.06145887 -1.3881272 80.0636278 -1.35668945 74.06567383 C-1.31634379 66.35785773 -1.29899405 58.65017439 -1.28938007 50.94226551 C-1.28109065 44.32309985 -1.26385244 37.70396251 -1.24434257 31.08482146 C-1.238269 28.95273119 -1.23312996 26.82063984 -1.2279911 24.68854713 C-1.21760588 20.72567522 -1.19796557 16.76287956 -1.17700195 12.80004883 C-1.17431305 11.61303375 -1.17162415 10.42601868 -1.16885376 9.20303345 C-1.16169846 8.1304277 -1.15454315 7.05782196 -1.14717102 5.95271301 C-1.14289754 5.01491406 -1.13862406 4.07711512 -1.13422108 3.11089802 C-1 1 -1 1 0 0 Z " fill="#FEFEFD" transform="translate(336,408)"/>
<path d="M0 0 C-1.48539626 3.94643629 -3.50935553 5.18945347 -7.15234375 7.1796875 C-8.7609729 8.06720703 -8.7609729 8.06720703 -10.40209961 8.97265625 C-11.58033385 9.60720283 -12.75880746 10.24130512 -13.9375 10.875 C-15.1599318 11.54233677 -16.38201301 12.21031613 -17.60375977 12.87890625 C-26.92494506 17.95991875 -36.33925683 22.86220748 -45.77880859 27.71923828 C-62.35743304 36.24998679 -78.7991308 45.04952517 -95.06787109 54.15771484 C-111.63227565 63.40217253 -128.43311868 72.24819831 -145.27807617 80.96826172 C-150.82868697 83.84542992 -156.31488392 86.81540021 -161.76538086 89.87866211 C-164 91 -164 91 -166 91 C-166 91.99 -166 92.98 -166 94 C-168.33333333 94 -170.66666667 94 -173 94 C-173.5 91.8125 -173.5 91.8125 -173 89 C-167.60151662 84.55619967 -160.63162683 81.66095045 -154.4375 78.5 C-146.42487383 74.36731393 -138.51587716 70.09670518 -130.6875 65.625 C-119.33830088 59.14764748 -107.85136769 52.94672438 -96.32910156 46.78369141 C-92.96345515 44.98041972 -89.6021345 43.1693356 -86.2421875 41.35546875 C-75.89491366 35.76955234 -65.54153378 30.20002796 -55.1171875 24.7590332 C-50.7844027 22.49033894 -46.48197804 20.17443439 -42.19921875 17.8125 C-32.50822049 12.47384398 -22.80880193 7.24375239 -12.75 2.625 C-11.92250244 2.23755615 -11.09500488 1.8501123 -10.24243164 1.45092773 C-9.0937561 0.93767944 -9.0937561 0.93767944 -7.921875 0.4140625 C-6.92559082 -0.03525635 -6.92559082 -0.03525635 -5.90917969 -0.49365234 C-3.60549401 -1.10462985 -2.23296969 -0.74867236 0 0 Z " fill="#F6F6F4" transform="translate(668,395)"/>
<path d="M0 0 C-1.50197181 4.16764377 -3.90568707 5.39702361 -7.71484375 7.4609375 C-8.28521866 7.77398834 -8.85559357 8.08703918 -9.44325256 8.40957642 C-11.26915566 9.40858599 -13.10296597 10.39194663 -14.9375 11.375 C-16.13662424 12.0276243 -17.33519793 12.68126126 -18.53320312 13.3359375 C-20.88461874 14.61928861 -23.24097213 15.89166275 -25.60107422 17.15917969 C-27.83297778 18.36795378 -30.05391906 19.59723658 -32.26220703 20.84863281 C-33.74309814 21.68539551 -33.74309814 21.68539551 -35.25390625 22.5390625 C-36.12474854 23.03873535 -36.99559082 23.5384082 -37.89282227 24.05322266 C-38.58819092 24.36565918 -39.28355957 24.6780957 -40 25 C-40.66 24.67 -41.32 24.34 -42 24 C-40.6875 22.5 -40.6875 22.5 -39 21 C-38.01 21 -37.02 21 -36 21 C-36.33 20.01 -36.66 19.02 -37 18 C-36.34 17.34 -35.68 16.68 -35 16 C-34.67 15.01 -34.34 14.02 -34 13 C-31.45556641 11.48193359 -31.45556641 11.48193359 -28.1015625 9.8984375 C-27.51079926 9.61650543 -26.92003601 9.33457336 -26.31137085 9.0440979 C-24.42031643 8.14474379 -22.52280643 7.26000239 -20.625 6.375 C-19.35373906 5.77173361 -18.08290008 5.16757715 -16.8125 4.5625 C-4.34294097 -1.34780927 -4.34294097 -1.34780927 0 0 Z " fill="#EFEFEE" transform="translate(668,395)"/>
<path d="M0 0 C0.66 0.66 1.32 1.32 2 2 C3.31747324 2.69748583 4.64914193 3.36959957 6 4 C3.04894616 5.7004792 0.08809878 7.38311093 -2.875 9.0625 C-3.71675781 9.54783203 -4.55851563 10.03316406 -5.42578125 10.53320312 C-6.23144531 10.98759766 -7.03710938 11.44199219 -7.8671875 11.91015625 C-8.61081543 12.33433838 -9.35444336 12.75852051 -10.12060547 13.19555664 C-11.05090576 13.5937561 -11.05090576 13.5937561 -12 14 C-12.66 13.67 -13.32 13.34 -14 13 C-12.6875 11.5 -12.6875 11.5 -11 10 C-10.01 10 -9.02 10 -8 10 C-8.33 9.01 -8.66 8.02 -9 7 C-8.34 6.34 -7.68 5.68 -7 5 C-6.67 4.01 -6.34 3.02 -6 2 C-3.85412616 0.684787 -2.52986895 0 0 0 Z " fill="#F3F3F2" transform="translate(640,406)"/>
<path d="M0 0 C0 0.99 0 1.98 0 3 C-2.3281818 4.61679292 -4.68990157 5.85356463 -7.25 7.0625 C-9.18053285 7.88003585 -9.18053285 7.88003585 -10 10 C-11.98 10 -13.96 10 -16 10 C-16 8.68 -16 7.36 -16 6 C-14.08850332 4.9901527 -12.17058431 3.99245505 -10.25 3 C-9.18265625 2.443125 -8.1153125 1.88625 -7.015625 1.3125 C-4 0 -4 0 0 0 Z " fill="#F7F7F6" transform="translate(657,399)"/>
<path d="M0 0 C0.804375 0.515625 1.60875 1.03125 2.4375 1.5625 C3.86977904 2.28133177 5.30767988 2.98903379 6.75 3.6875 C7.98016164 4.31053935 9.20967138 4.93487545 10.4375 5.5625 C9.7775 6.2225 9.1175 6.8825 8.4375 7.5625 C5.21625085 7.5625 3.38064616 6.76994458 0.4375 5.5625 C-0.2225 5.5625 -0.8825 5.5625 -1.5625 5.5625 C-2.2225 4.9025 -2.8825 4.2425 -3.5625 3.5625 C-5.5425 4.8825 -7.5225 6.2025 -9.5625 7.5625 C-10.2225 7.2325 -10.8825 6.9025 -11.5625 6.5625 C-11.5625 5.9025 -11.5625 5.2425 -11.5625 4.5625 C-3.59075481 -0.6130557 -3.59075481 -0.6130557 0 0 Z " fill="#EDEDEC" transform="translate(513.5625,311.4375)"/>
<path d="M0 0 C-1.28077594 3.84232783 -2.55374381 4.00882976 -6 6 C-8.8168033 8.17473785 -11.48244104 10.48244104 -14 13 C-17.625 12.625 -17.625 12.625 -21 12 C-17.62075466 8.15285915 -13.85206381 6.06572266 -9.375 3.75 C-8.694375 3.38648438 -8.01375 3.02296875 -7.3125 2.6484375 C-2.27449483 0 -2.27449483 0 0 0 Z " fill="#F1F0EF" transform="translate(478,330)"/>
<path d="M0 0 C2.60797351 1.26347163 5.21123407 2.53535224 7.8125 3.8125 C8.55048828 4.16892578 9.28847656 4.52535156 10.04882812 4.89257812 C10.76103516 5.24384766 11.47324219 5.59511719 12.20703125 5.95703125 C12.8616333 6.27647705 13.51623535 6.59592285 14.19067383 6.92504883 C16.11617064 8.06901894 17.48835511 9.35744135 19 11 C17.9275 10.814375 16.855 10.62875 15.75 10.4375 C12.59608454 10.0695432 10.90181508 9.95534657 8 11 C7.4121875 9.6078125 7.4121875 9.6078125 6.8125 8.1875 C4.85260151 4.74078196 3.40239497 3.83913242 0 2 C0 1.34 0 0.68 0 0 Z M14 11 C14.99 11.33 15.98 11.66 17 12 C16.34 12.66 15.68 13.32 15 14 C14.34 13.34 13.68 12.68 13 12 C13.33 11.67 13.66 11.34 14 11 Z " fill="#F5F5F4" transform="translate(434,457)"/>
<path d="M0 0 C0.99 0.33 1.98 0.66 3 1 C1.02 1.99 1.02 1.99 -1 3 C-1.33 2.34 -1.66 1.68 -2 1 C-1.34 0.67 -0.68 0.34 0 0 Z M-3 3 C-3 3.66 -3 4.32 -3 5 C-5.31 5.66 -7.62 6.32 -10 7 C-9.34 8.98 -8.68 10.96 -8 13 C-10.35438733 14.42944945 -11.48032433 15.08661261 -14.25 14.625 C-14.8275 14.41875 -15.405 14.2125 -16 14 C-15.690625 13.401875 -15.38125 12.80375 -15.0625 12.1875 C-13.89790296 9.91043228 -13.89790296 9.91043228 -13 7 C-11.22265625 5.83203125 -11.22265625 5.83203125 -9.0625 4.8125 C-8.35222656 4.46832031 -7.64195312 4.12414062 -6.91015625 3.76953125 C-5 3 -5 3 -3 3 Z " fill="#EEEEED" transform="translate(567,444)"/>
<path d="M0 0 C0 0.66 0 1.32 0 2 C0.99 2 1.98 2 3 2 C3 2.66 3 3.32 3 4 C-4.92 7.96 -4.92 7.96 -13 12 C-13 11.34 -13 10.68 -13 10 C-11.28515625 8.78125 -11.28515625 8.78125 -9.0625 7.5 C-5.94567974 5.81545121 -5.94567974 5.81545121 -4 3 C-5.32 3.33 -6.64 3.66 -8 4 C-7 1 -7 1 -5.125 -0.25 C-3 -1 -3 -1 0 0 Z " fill="#F1F1F0" transform="translate(609,424)"/>
<path d="M0 0 C0 0.66 0 1.32 0 2 C-5.625 5 -5.625 5 -9 5 C-2.87096774 0 -2.87096774 0 0 0 Z M-11 5 C-10.34 5.33 -9.68 5.66 -9 6 C-9.33 6.99 -9.66 7.98 -10 9 C-9.34 9.66 -8.68 10.32 -8 11 C-8.66 11 -9.32 11 -10 11 C-10 11.99 -10 12.98 -10 14 C-12.475 13.01 -12.475 13.01 -15 12 C-15 10.68 -15 9.36 -15 8 C-13 6.25 -13 6.25 -11 5 Z " fill="#F1F0F0" transform="translate(368,388)"/>
<path d="M0 0 C0 0.99 0 1.98 0 3 C-2.7881022 4.5066972 -5.58103958 6.00419804 -8.375 7.5 C-9.1690625 7.92925781 -9.963125 8.35851562 -10.78125 8.80078125 C-11.54179688 9.20683594 -12.30234375 9.61289062 -13.0859375 10.03125 C-13.7876709 10.40830078 -14.4894043 10.78535156 -15.21240234 11.17382812 C-17 12 -17 12 -19 12 C-18.67 10.35 -18.34 8.7 -18 7 C-16.02 7 -14.04 7 -12 7 C-12 6.34 -12 5.68 -12 5 C-10.7625 4.54625 -9.525 4.0925 -8.25 3.625 C-5.40754505 2.5615993 -2.67336954 1.44807517 0 0 Z " fill="#F1F0F0" transform="translate(568,426)"/>
<path d="M0 0 C0.66 0.33 1.32 0.66 2 1 C-0.95105384 2.7004792 -3.91190122 4.38311093 -6.875 6.0625 C-7.71675781 6.54783203 -8.55851563 7.03316406 -9.42578125 7.53320312 C-10.23144531 7.98759766 -11.03710938 8.44199219 -11.8671875 8.91015625 C-12.61081543 9.33433838 -13.35444336 9.75852051 -14.12060547 10.19555664 C-15.05090576 10.5937561 -15.05090576 10.5937561 -16 11 C-16.66 10.67 -17.32 10.34 -18 10 C-16.6875 8.5 -16.6875 8.5 -15 7 C-14.01 7 -13.02 7 -12 7 C-12 6.34 -12 5.68 -12 5 C-10.04578965 4.13644222 -8.08648653 3.28440066 -6.125 2.4375 C-5.03445313 1.96183594 -3.94390625 1.48617188 -2.8203125 0.99609375 C-1.88960937 0.66738281 -0.95890625 0.33867187 0 0 Z " fill="#E7E7E6" transform="translate(644,409)"/>
<path d="M0 0 C-1.40019875 4.20059624 -4.36825877 5.19051525 -8.0625 7.1875 C-8.72572266 7.55552734 -9.38894531 7.92355469 -10.07226562 8.30273438 C-11.71027457 9.21012062 -13.35456221 10.10615573 -15 11 C-15 10.01 -15 9.02 -15 8 C-13.42578125 6.71875 -13.42578125 6.71875 -11.3125 5.5 C-10.22001953 4.85998047 -10.22001953 4.85998047 -9.10546875 4.20703125 C-8.41066406 3.80871094 -7.71585938 3.41039062 -7 3 C-5.576875 2.1028125 -5.576875 2.1028125 -4.125 1.1875 C-2 0 -2 0 0 0 Z " fill="#EFEFEE" transform="translate(647,383)"/>
<path d="M0 0 C4.62 2.31 9.24 4.62 14 7 C13.67 7.66 13.34 8.32 13 9 C8.55558346 6.83199193 4.27490367 4.47944413 0 2 C0 1.34 0 0.68 0 0 Z " fill="#F0F0EF" transform="translate(540,326)"/>
<path d="M0 0 C0.5775 0.61875 1.155 1.2375 1.75 1.875 C3.80249821 3.81347053 5.43366582 4.90014249 8 6 C8 6.66 8 7.32 8 8 C4.12697862 6.85569823 0.99736561 5.76679902 -2 3 C-2 2.34 -2 1.68 -2 1 C-1.34 0.67 -0.68 0.34 0 0 Z " fill="#EDEDEC" transform="translate(361,400)"/>
<path d="M0 0 C4.43090471 1.20842856 6.98112756 2.51668565 10 6 C9.01 6.495 9.01 6.495 8 7 C8 6.34 8 5.68 8 5 C6.02 5 4.04 5 2 5 C1.34 3.35 0.68 1.7 0 0 Z " fill="#EFEFEE" transform="translate(600,358)"/>
<path d="M0 0 C0.33 1.32 0.66 2.64 1 4 C0.01 3.67 -0.98 3.34 -2 3 C-2.33 4.32 -2.66 5.64 -3 7 C-3.66 7 -4.32 7 -5 7 C-5.33 5.68 -5.66 4.36 -6 3 C-4.02 2.01 -2.04 1.02 0 0 Z " fill="#F3F3F2" transform="translate(621,439)"/>
<path d="M0 0 C3.37503669 1.1858237 5.64722731 2.27573689 8 5 C7.01 5.495 7.01 5.495 6 6 C5.01 5.67 4.02 5.34 3 5 C2.01 5.495 2.01 5.495 1 6 C0.67 4.02 0.34 2.04 0 0 Z " fill="#ECECEB" transform="translate(336,408)"/>
<path d="M0 0 C0.33 1.32 0.66 2.64 1 4 C-0.32 4 -1.64 4 -3 4 C-3.33 3.01 -3.66 2.02 -4 1 C-2 0 -2 0 0 0 Z M-4 2 C-4 2.66 -4 3.32 -4 4 C-5.65 4.66 -7.3 5.32 -9 6 C-8.67 5.01 -8.34 4.02 -8 3 C-6 2 -6 2 -4 2 Z " fill="#F5F5F4" transform="translate(489,324)"/>
<path d="M0 0 C4.03321763 1.21934486 7.54269479 2.55954927 11 5 C11 5.66 11 6.32 11 7 C7.2089881 5.55049545 3.6125362 3.84827434 0 2 C0 1.34 0 0.68 0 0 Z " fill="#EFEFEE" transform="translate(463,603)"/>
<path d="M0 0 C3.96 1.98 3.96 1.98 8 4 C5 6 5 6 2 6 C2 4.68 2 3.36 2 2 C1.34 2 0.68 2 0 2 C0 1.34 0 0.68 0 0 Z " fill="#F7F7F5" transform="translate(457,469)"/>
<path d="M0 0 C0.33 0.99 0.66 1.98 1 3 C-0.32 3.99 -1.64 4.98 -3 6 C-3.99 5.01 -4.98 4.02 -6 3 C-4.02 2.01 -2.04 1.02 0 0 Z " fill="#F4F4F3" transform="translate(431,354)"/>
<path d="M0 0 C0 0.66 0 1.32 0 2 C-5.625 5 -5.625 5 -9 5 C-7.16182974 1.32365947 -3.97378668 0 0 0 Z " fill="#E8E8E7" transform="translate(594,436)"/>
<path d="M0 0 C0 0.99 0 1.98 0 3 C-1.28650706 3.69710731 -2.57940665 4.38242876 -3.875 5.0625 C-4.95394531 5.63677734 -4.95394531 5.63677734 -6.0546875 6.22265625 C-6.69664062 6.47917969 -7.33859375 6.73570312 -8 7 C-8.66 6.67 -9.32 6.34 -10 6 C-6.87567603 3.47650757 -3.61939504 1.72743854 0 0 Z " fill="#F0F0EF" transform="translate(615,400)"/>
<path d="M0 0 C0 1.65 0 3.3 0 5 C-1.98 5.33 -3.96 5.66 -6 6 C-3.4 0 -3.4 0 0 0 Z " fill="#F7F7F5" transform="translate(639,430)"/>
<path d="M0 0 C1.65 0 3.3 0 5 0 C5.66 1.65 6.32 3.3 7 5 C4.69 4.01 2.38 3.02 0 2 C0 1.34 0 0.68 0 0 Z " fill="#F7F8F6" transform="translate(408,427)"/>
<path d="M0 0 C0.99 0 1.98 0 3 0 C3 0.99 3 1.98 3 3 C2.01 3 1.02 3 0 3 C0 2.01 0 1.02 0 0 Z " fill="#000000" transform="translate(481,666)"/>
<path d="M0 0 C0.66 0.66 1.32 1.32 2 2 C1.01 2.66 0.02 3.32 -1 4 C-1 1 -1 1 0 0 Z " fill="#000000" transform="translate(345,298)"/>
<path d="M0 0 C0.66 0.66 1.32 1.32 2 2 C1.01 2 0.02 2 -1 2 C-0.67 1.34 -0.34 0.68 0 0 Z " fill="#000000" transform="translate(313,336)"/>
<path d="M0 0 C0.66 0.66 1.32 1.32 2 2 C1.01 2 0.02 2 -1 2 C-0.67 1.34 -0.34 0.68 0 0 Z " fill="#000000" transform="translate(324,321)"/>
</svg>
